<svg width="30" height="30" viewBox="0 0 30 30" fill="none" xmlns="http://www.w3.org/2000/svg">
<path d="M6.09375 2.8125C4.28467 2.8125 2.8125 4.28467 2.8125 6.09375V23.9062C2.8125 25.7153 4.28467 27.1875 6.09375 27.1875H23.9062C25.7153 27.1875 27.1875 25.7153 27.1875 23.9062V6.09375C27.1875 4.28467 25.7153 2.8125 23.9062 2.8125H6.09375ZM6.09375 3.75H23.9062C25.2008 3.75 26.25 4.79919 26.25 6.09375V23.9062C26.25 25.2008 25.2008 26.25 23.9062 26.25H18.7024V20.1434H21.4728C21.7017 20.1434 21.8976 19.9786 21.936 19.7516L22.4689 16.4923C22.5146 16.2067 22.2949 15.9467 22.0056 15.9467H18.7024V15.1886C18.7024 14.2987 18.8873 13.9014 19.9805 13.9014H22.1613C22.4194 13.9014 22.63 13.6926 22.63 13.4326V10.0378C22.63 9.79614 22.4487 9.59656 22.2089 9.57275C21.5112 9.50317 20.1288 9.375 19.4806 9.375C16.463 9.375 14.5148 11.4514 14.5148 14.6649V15.9467H11.7188C11.4606 15.9467 11.25 16.1572 11.25 16.4154V19.6747C11.25 19.9347 11.4606 20.1434 11.7188 20.1434H14.5129V26.25H6.09375C4.79919 26.25 3.75 25.2008 3.75 23.9062V6.09375C3.75 4.79919 4.79919 3.75 6.09375 3.75ZM5.625 5.625C5.36499 5.625 5.15625 5.83557 5.15625 6.09375V7.03125C5.15625 7.28943 5.36499 7.5 5.625 7.5C5.88501 7.5 6.09375 7.28943 6.09375 7.03125V6.09375C6.09375 5.83557 5.88501 5.625 5.625 5.625ZM7.96875 5.625C7.70874 5.625 7.5 5.83557 7.5 6.09375V7.03125C7.5 7.28943 7.70874 7.5 7.96875 7.5C8.22876 7.5 8.4375 7.28943 8.4375 7.03125V6.09375C8.4375 5.83557 8.22876 5.625 7.96875 5.625ZM10.3125 5.625C10.0525 5.625 9.84375 5.83557 9.84375 6.09375V7.03125C9.84375 7.28943 10.0525 7.5 10.3125 7.5C10.5725 7.5 10.7812 7.28943 10.7812 7.03125V6.09375C10.7812 5.83557 10.5725 5.625 10.3125 5.625ZM12.6562 5.625C12.3962 5.625 12.1875 5.83557 12.1875 6.09375V7.03125C12.1875 7.28943 12.3962 7.5 12.6562 7.5C12.9163 7.5 13.125 7.28943 13.125 7.03125V6.09375C13.125 5.83557 12.9163 5.625 12.6562 5.625ZM15 5.625C14.74 5.625 14.5312 5.83557 14.5312 6.09375V7.03125C14.5312 7.28943 14.74 7.5 15 7.5C15.26 7.5 15.4688 7.28943 15.4688 7.03125V6.09375C15.4688 5.83557 15.26 5.625 15 5.625ZM17.3438 5.625C17.0837 5.625 16.875 5.83557 16.875 6.09375V7.03125C16.875 7.28943 17.0837 7.5 17.3438 7.5C17.6038 7.5 17.8125 7.28943 17.8125 7.03125V6.09375C17.8125 5.83557 17.6038 5.625 17.3438 5.625ZM19.6875 5.625C19.4275 5.625 19.2188 5.83557 19.2188 6.09375V7.03125C19.2188 7.28943 19.4275 7.5 19.6875 7.5C19.9475 7.5 20.1562 7.28943 20.1562 7.03125V6.09375C20.1562 5.83557 19.9475 5.625 19.6875 5.625ZM22.0312 5.625C21.7712 5.625 21.5625 5.83557 21.5625 6.09375V7.03125C21.5625 7.28943 21.7712 7.5 22.0312 7.5C22.2913 7.5 22.5 7.28943 22.5 7.03125V6.09375C22.5 5.83557 22.2913 5.625 22.0312 5.625ZM24.375 5.625C24.115 5.625 23.9062 5.83557 23.9062 6.09375V7.03125C23.9062 7.28943 24.115 7.5 24.375 7.5C24.635 7.5 24.8438 7.28943 24.8438 7.03125V6.09375C24.8438 5.83557 24.635 5.625 24.375 5.625ZM19.4806 10.3125C20.1984 10.3125 20.9399 10.3546 21.6925 10.4388V12.9639H19.9823C17.9956 12.9639 17.7667 14.2328 17.7667 15.1886V16.8842H21.4545L21.0736 19.2059H17.7649V26.25H15.4504V19.2059H12.1875V16.8842H15.4523V14.6649C15.4523 11.9403 16.9574 10.3125 19.4806 10.3125Z" fill="#F8A68D"/>
</svg>
