<svg width="30" height="30" viewBox="0 0 30 30" fill="none" xmlns="http://www.w3.org/2000/svg">
<path d="M6.09375 2.8125C4.28467 2.8125 2.8125 4.28467 2.8125 6.09375V23.9062C2.8125 25.7153 4.28467 27.1875 6.09375 27.1875H23.9062C25.7153 27.1875 27.1875 25.7153 27.1875 23.9062V6.09375C27.1875 4.28467 25.7153 2.8125 23.9062 2.8125H6.09375ZM6.09375 3.75H23.9062C25.199 3.75 26.25 4.80103 26.25 6.09375V23.9062C26.25 25.199 25.199 26.25 23.9062 26.25H6.09375C4.80103 26.25 3.75 25.199 3.75 23.9062V6.09375C3.75 4.80103 4.80103 3.75 6.09375 3.75ZM22.5 6.09375C21.7255 6.09375 21.0938 6.72546 21.0938 7.5C21.0938 8.27454 21.7255 8.90625 22.5 8.90625C23.2745 8.90625 23.9062 8.27454 23.9062 7.5C23.9062 6.72546 23.2745 6.09375 22.5 6.09375ZM22.5 6.81152C22.879 6.81152 23.1885 7.12097 23.1885 7.5C23.1885 7.87903 22.879 8.18848 22.5 8.18848C22.121 8.18848 21.8115 7.87903 21.8115 7.5C21.8115 7.12097 22.121 6.81152 22.5 6.81152ZM15 8.4375C11.3818 8.4375 8.4375 11.3818 8.4375 15C8.4375 18.6182 11.3818 21.5625 15 21.5625C18.6182 21.5625 21.5625 18.6182 21.5625 15C21.5625 11.3818 18.6182 8.4375 15 8.4375ZM15 9.375C18.1018 9.375 20.625 11.8982 20.625 15C20.625 18.1018 18.1018 20.625 15 20.625C11.8982 20.625 9.375 18.1018 9.375 15C9.375 11.8982 11.8982 9.375 15 9.375ZM15 10.3125C12.4146 10.3125 10.3125 12.4146 10.3125 15C10.3125 17.5854 12.4146 19.6875 15 19.6875C17.5854 19.6875 19.6875 17.5854 19.6875 15C19.6875 12.4146 17.5854 10.3125 15 10.3125ZM15 11.25C17.0673 11.25 18.75 12.9327 18.75 15C18.75 17.0673 17.0673 18.75 15 18.75C12.9327 18.75 11.25 17.0673 11.25 15C11.25 12.9327 12.9327 11.25 15 11.25ZM5.625 22.9688C5.36682 22.9688 5.15625 23.1793 5.15625 23.4375V24.375C5.15625 24.6332 5.36682 24.8438 5.625 24.8438C5.88318 24.8438 6.09375 24.6332 6.09375 24.375V23.4375C6.09375 23.1793 5.88318 22.9688 5.625 22.9688ZM7.96875 22.9688C7.71057 22.9688 7.5 23.1793 7.5 23.4375V24.375C7.5 24.6332 7.71057 24.8438 7.96875 24.8438C8.22693 24.8438 8.4375 24.6332 8.4375 24.375V23.4375C8.4375 23.1793 8.22693 22.9688 7.96875 22.9688ZM10.3125 22.9688C10.0543 22.9688 9.84375 23.1793 9.84375 23.4375V24.375C9.84375 24.6332 10.0543 24.8438 10.3125 24.8438C10.5707 24.8438 10.7812 24.6332 10.7812 24.375V23.4375C10.7812 23.1793 10.5707 22.9688 10.3125 22.9688ZM12.6562 22.9688C12.3981 22.9688 12.1875 23.1793 12.1875 23.4375V24.375C12.1875 24.6332 12.3981 24.8438 12.6562 24.8438C12.9144 24.8438 13.125 24.6332 13.125 24.375V23.4375C13.125 23.1793 12.9144 22.9688 12.6562 22.9688ZM15 22.9688C14.7418 22.9688 14.5312 23.1793 14.5312 23.4375V24.375C14.5312 24.6332 14.7418 24.8438 15 24.8438C15.2582 24.8438 15.4688 24.6332 15.4688 24.375V23.4375C15.4688 23.1793 15.2582 22.9688 15 22.9688ZM17.3438 22.9688C17.0856 22.9688 16.875 23.1793 16.875 23.4375V24.375C16.875 24.6332 17.0856 24.8438 17.3438 24.8438C17.6019 24.8438 17.8125 24.6332 17.8125 24.375V23.4375C17.8125 23.1793 17.6019 22.9688 17.3438 22.9688ZM19.6875 22.9688C19.4293 22.9688 19.2188 23.1793 19.2188 23.4375V24.375C19.2188 24.6332 19.4293 24.8438 19.6875 24.8438C19.9457 24.8438 20.1562 24.6332 20.1562 24.375V23.4375C20.1562 23.1793 19.9457 22.9688 19.6875 22.9688ZM22.0312 22.9688C21.7731 22.9688 21.5625 23.1793 21.5625 23.4375V24.375C21.5625 24.6332 21.7731 24.8438 22.0312 24.8438C22.2894 24.8438 22.5 24.6332 22.5 24.375V23.4375C22.5 23.1793 22.2894 22.9688 22.0312 22.9688ZM24.375 22.9688C24.1168 22.9688 23.9062 23.1793 23.9062 23.4375V24.375C23.9062 24.6332 24.1168 24.8438 24.375 24.8438C24.6332 24.8438 24.8438 24.6332 24.8438 24.375V23.4375C24.8438 23.1793 24.6332 22.9688 24.375 22.9688Z" fill="#F8A68D"/>
</svg>
