<svg width="20" height="20" viewBox="0 0 20 20" fill="none" xmlns="http://www.w3.org/2000/svg">
<path d="M10 17.6042C10.1806 17.6042 10.3299 17.5452 10.4479 17.4271C10.566 17.3091 10.625 17.1598 10.625 16.9792C10.625 16.7987 10.566 16.6493 10.4479 16.5313C10.3299 16.4132 10.1806 16.3542 10 16.3542C9.81944 16.3542 9.67014 16.4132 9.55208 16.5313C9.43403 16.6493 9.375 16.7987 9.375 16.9792C9.375 17.1598 9.43403 17.3091 9.55208 17.4271C9.67014 17.5452 9.81944 17.6042 10 17.6042ZM5.41667 14.7917H14.5833V3.95837H5.41667V14.7917ZM5.41667 19.1667C5.08333 19.1667 4.79167 19.0417 4.54167 18.7917C4.29167 18.5417 4.16667 18.25 4.16667 17.9167V2.08337C4.16667 1.75004 4.29167 1.45837 4.54167 1.20837C4.79167 0.958374 5.08333 0.833374 5.41667 0.833374H14.5833C14.9167 0.833374 15.2083 0.958374 15.4583 1.20837C15.7083 1.45837 15.8333 1.75004 15.8333 2.08337V17.9167C15.8333 18.25 15.7083 18.5417 15.4583 18.7917C15.2083 19.0417 14.9167 19.1667 14.5833 19.1667H5.41667ZM5.41667 2.70837H14.5833V2.08337H5.41667V2.70837ZM5.41667 2.08337V2.70837V2.08337ZM5.41667 16.0417V17.9167H14.5833V16.0417H5.41667ZM5.41667 17.9167V16.0417V17.9167Z" fill="#F8A68D"/>
</svg>
