<svg width="20" height="20" viewBox="0 0 20 20" fill="none" xmlns="http://www.w3.org/2000/svg">
<path d="M10 13.7916C11.4444 12.625 12.5347 11.5034 13.2708 10.427C14.0069 9.35065 14.375 8.34718 14.375 7.41663C14.375 6.59718 14.2257 5.90274 13.9271 5.33329C13.6285 4.76385 13.2604 4.29857 12.8229 3.93746C12.3854 3.57635 11.9097 3.31593 11.3958 3.15621C10.8819 2.99649 10.4167 2.91663 10 2.91663C9.58333 2.91663 9.11806 2.99649 8.60417 3.15621C8.09028 3.31593 7.61458 3.57635 7.17708 3.93746C6.73958 4.29857 6.37153 4.76385 6.07292 5.33329C5.77431 5.90274 5.625 6.59718 5.625 7.41663C5.625 8.34718 5.99306 9.35065 6.72917 10.427C7.46528 11.5034 8.55556 12.625 10 13.7916ZM10 15.375C8.09722 13.9444 6.68403 12.5763 5.76042 11.2708C4.83681 9.96524 4.375 8.68051 4.375 7.41663C4.375 6.47218 4.54514 5.64232 4.88542 4.92704C5.22569 4.21176 5.66667 3.61107 6.20833 3.12496C6.75 2.63885 7.35417 2.27426 8.02083 2.03121C8.6875 1.78815 9.34722 1.66663 10 1.66663C10.6528 1.66663 11.3125 1.78815 11.9792 2.03121C12.6458 2.27426 13.25 2.63885 13.7917 3.12496C14.3333 3.61107 14.7743 4.21176 15.1146 4.92704C15.4549 5.64232 15.625 6.47218 15.625 7.41663C15.625 8.68051 15.1632 9.96524 14.2396 11.2708C13.316 12.5763 11.9028 13.9444 10 15.375ZM10 8.74996C10.4028 8.74996 10.7465 8.6076 11.0312 8.32288C11.316 8.03815 11.4583 7.6944 11.4583 7.29163C11.4583 6.88885 11.316 6.5451 11.0312 6.26038C10.7465 5.97565 10.4028 5.83329 10 5.83329C9.59722 5.83329 9.25347 5.97565 8.96875 6.26038C8.68403 6.5451 8.54167 6.88885 8.54167 7.29163C8.54167 7.6944 8.68403 8.03815 8.96875 8.32288C9.25347 8.6076 9.59722 8.74996 10 8.74996ZM4.375 18.3333V17.0833H15.625V18.3333H4.375Z" fill="#F8A68D"/>
</svg>
