<svg width="20" height="20" viewBox="0 0 20 20" fill="none" xmlns="http://www.w3.org/2000/svg">
<path d="M2.91667 16.6667C2.58333 16.6667 2.29167 16.5417 2.04167 16.2917C1.79167 16.0417 1.66667 15.75 1.66667 15.4167V4.58337C1.66667 4.25004 1.79167 3.95837 2.04167 3.70837C2.29167 3.45837 2.58333 3.33337 2.91667 3.33337H17.0833C17.4167 3.33337 17.7083 3.45837 17.9583 3.70837C18.2083 3.95837 18.3333 4.25004 18.3333 4.58337V15.4167C18.3333 15.75 18.2083 16.0417 17.9583 16.2917C17.7083 16.5417 17.4167 16.6667 17.0833 16.6667H2.91667ZM10 10.375L2.91667 5.72921V15.4167H17.0833V5.72921L10 10.375ZM10 9.12504L17 4.58337H3.02083L10 9.12504ZM2.91667 5.72921V4.58337V5.72921V15.4167V5.72921Z" fill="#F8A68D"/>
</svg>
