<svg width="30" height="30" viewBox="0 0 30 30" fill="none" xmlns="http://www.w3.org/2000/svg">
<path d="M6.09375 2.8125C4.28467 2.8125 2.8125 4.28467 2.8125 6.09375V23.9062C2.8125 25.7153 4.28467 27.1875 6.09375 27.1875H23.9062C25.7153 27.1875 27.1875 25.7153 27.1875 23.9062V6.09375C27.1875 4.28467 25.7153 2.8125 23.9062 2.8125H6.09375ZM6.09375 3.75H23.9062C25.199 3.75 26.25 4.80103 26.25 6.09375V23.9062C26.25 25.199 25.199 26.25 23.9062 26.25H6.09375C4.80103 26.25 3.75 25.199 3.75 23.9062V6.09375C3.75 4.80103 4.80103 3.75 6.09375 3.75ZM5.625 5.625C5.36682 5.625 5.15625 5.83374 5.15625 6.09375V7.03125C5.15625 7.29126 5.36682 7.5 5.625 7.5C5.88318 7.5 6.09375 7.29126 6.09375 7.03125V6.09375C6.09375 5.83374 5.88318 5.625 5.625 5.625ZM7.96875 5.625C7.71057 5.625 7.5 5.83374 7.5 6.09375V7.03125C7.5 7.29126 7.71057 7.5 7.96875 7.5C8.22693 7.5 8.4375 7.29126 8.4375 7.03125V6.09375C8.4375 5.83374 8.22693 5.625 7.96875 5.625ZM10.3125 5.625C10.0543 5.625 9.84375 5.83374 9.84375 6.09375V7.03125C9.84375 7.29126 10.0543 7.5 10.3125 7.5C10.5707 7.5 10.7812 7.29126 10.7812 7.03125V6.09375C10.7812 5.83374 10.5707 5.625 10.3125 5.625ZM12.6562 5.625C12.3981 5.625 12.1875 5.83374 12.1875 6.09375V7.03125C12.1875 7.29126 12.3981 7.5 12.6562 7.5C12.9144 7.5 13.125 7.29126 13.125 7.03125V6.09375C13.125 5.83374 12.9144 5.625 12.6562 5.625ZM15 5.625C14.7418 5.625 14.5312 5.83374 14.5312 6.09375V7.03125C14.5312 7.29126 14.7418 7.5 15 7.5C15.2582 7.5 15.4688 7.29126 15.4688 7.03125V6.09375C15.4688 5.83374 15.2582 5.625 15 5.625ZM17.3438 5.625C17.0856 5.625 16.875 5.83374 16.875 6.09375V7.03125C16.875 7.29126 17.0856 7.5 17.3438 7.5C17.6019 7.5 17.8125 7.29126 17.8125 7.03125V6.09375C17.8125 5.83374 17.6019 5.625 17.3438 5.625ZM19.6875 5.625C19.4293 5.625 19.2188 5.83374 19.2188 6.09375V7.03125C19.2188 7.29126 19.4293 7.5 19.6875 7.5C19.9457 7.5 20.1562 7.29126 20.1562 7.03125V6.09375C20.1562 5.83374 19.9457 5.625 19.6875 5.625ZM22.0312 5.625C21.7731 5.625 21.5625 5.83374 21.5625 6.09375V7.03125C21.5625 7.29126 21.7731 7.5 22.0312 7.5C22.2894 7.5 22.5 7.29126 22.5 7.03125V6.09375C22.5 5.83374 22.2894 5.625 22.0312 5.625ZM24.375 5.625C24.1168 5.625 23.9062 5.83374 23.9062 6.09375V7.03125C23.9062 7.29126 24.1168 7.5 24.375 7.5C24.6332 7.5 24.8438 7.29126 24.8438 7.03125V6.09375C24.8438 5.83374 24.6332 5.625 24.375 5.625ZM18.4937 9.74854C16.4758 9.74854 14.8334 11.3892 14.8334 13.407C14.8334 13.504 14.837 13.6011 14.8444 13.6963C12.5482 13.4473 10.4224 12.2992 8.95203 10.4938C8.8678 10.3894 8.73596 10.3326 8.60046 10.3418C8.4668 10.3528 8.34595 10.4297 8.2782 10.5469C7.9541 11.1035 7.78198 11.7389 7.78198 12.3853C7.78198 13.0737 7.97424 13.7347 8.32214 14.3042C8.20496 14.2548 8.07312 14.2639 7.96143 14.328C7.83691 14.3994 7.75818 14.5331 7.75635 14.6777V14.7235C7.75635 15.8679 8.29102 16.9116 9.14062 17.5891C9.08569 17.6129 9.03809 17.6477 8.9978 17.6935C8.90259 17.8015 8.86963 17.9535 8.91357 18.0908C9.27795 19.2261 10.1605 20.0885 11.2518 20.4492C10.3564 20.9418 9.35303 21.2 8.30566 21.2C8.05664 21.2 7.81311 21.1853 7.58057 21.1578C7.38831 21.134 7.20886 21.2457 7.14294 21.427C7.07886 21.6083 7.14844 21.8079 7.30957 21.9122C8.86414 22.9102 10.6622 23.4375 12.5098 23.4375C16.1407 23.4375 18.4131 21.7236 19.6802 20.2863C21.2585 18.4955 22.1631 16.1261 22.1631 13.7842C22.1631 13.7109 22.1631 13.6377 22.1613 13.5645C22.7618 13.103 23.2819 12.5464 23.7067 11.9092C23.8092 11.759 23.7982 11.5576 23.6792 11.4185C23.562 11.2775 23.3643 11.2317 23.1976 11.3068C23.0914 11.3525 22.9852 11.3965 22.8754 11.4386C23.064 11.1566 23.2141 10.8472 23.3185 10.5212C23.3698 10.3583 23.3167 10.1807 23.183 10.0745C23.0493 9.96826 22.8644 9.95544 22.7179 10.0415C22.1814 10.3619 21.6028 10.5927 20.9967 10.7355C20.321 10.1038 19.422 9.74854 18.4937 9.74854ZM18.4937 10.5707C19.2755 10.5707 20.0299 10.8966 20.5646 11.4679C20.6616 11.5704 20.8044 11.6162 20.9454 11.5887C21.2805 11.5228 21.6083 11.4313 21.9287 11.3177C21.7438 11.521 21.5277 11.6968 21.2878 11.8414C21.1212 11.9403 21.048 12.1436 21.1102 12.3267C21.1725 12.5098 21.3556 12.6251 21.5479 12.6031C21.7456 12.5775 21.9415 12.5464 22.1356 12.5061C21.936 12.6947 21.7255 12.8687 21.5021 13.0298C21.3904 13.1104 21.3263 13.2422 21.3318 13.3813C21.3373 13.515 21.3428 13.6487 21.3428 13.7842C21.3428 19.3121 16.8512 22.6154 12.5098 22.6154C11.3654 22.6154 10.2411 22.3938 9.19189 21.9672C10.4333 21.8115 11.5942 21.3281 12.5922 20.5444C12.7295 20.4382 12.7844 20.257 12.7295 20.0903C12.6746 19.9255 12.5208 19.8138 12.3486 19.8102C11.3544 19.7919 10.4626 19.259 9.96643 18.4351C10.2759 18.4296 10.5817 18.3875 10.8801 18.3069C11.0651 18.2574 11.1896 18.0872 11.1841 17.8967C11.1768 17.7063 11.0394 17.5433 10.8527 17.5067C9.7467 17.2833 8.89343 16.4246 8.6499 15.3369C8.96484 15.4358 9.29443 15.4907 9.62402 15.4999C9.80896 15.5145 9.97375 15.39 10.0287 15.2161C10.0854 15.0421 10.0195 14.8517 9.86572 14.7491C9.07654 14.22 8.60413 13.3374 8.60413 12.3871C8.60413 12.0868 8.65173 11.7883 8.74329 11.5063C10.448 13.3301 12.8046 14.4324 15.3076 14.5587C15.4413 14.566 15.5603 14.5111 15.6445 14.4122C15.7269 14.3134 15.7581 14.1815 15.7306 14.0552C15.6812 13.8446 15.6555 13.6267 15.6555 13.4088C15.6555 11.8433 16.9281 10.5707 18.4937 10.5707Z" fill="#F8A68D"/>
</svg>
