<svg width="45" height="41" viewBox="0 0 45 41" fill="none" xmlns="http://www.w3.org/2000/svg">
<path d="M6.5625 34.1667C5.8125 34.1667 5.15625 33.9104 4.59375 33.3979C4.03125 32.8854 3.75 32.2875 3.75 31.6042V9.39583C3.75 8.71249 4.03125 8.11458 4.59375 7.60208C5.15625 7.08958 5.8125 6.83333 6.5625 6.83333H38.4375C39.1875 6.83333 39.8437 7.08958 40.4062 7.60208C40.9687 8.11458 41.25 8.71249 41.25 9.39583V31.6042C41.25 32.2875 40.9687 32.8854 40.4062 33.3979C39.8437 33.9104 39.1875 34.1667 38.4375 34.1667H6.5625ZM22.5 21.2687L6.5625 11.7448V31.6042H38.4375V11.7448L22.5 21.2687ZM22.5 18.7062L38.25 9.39583H6.79687L22.5 18.7062ZM6.5625 11.7448V9.39583V11.7448V31.6042V11.7448Z" fill="#7F1300"/>
</svg>
