<svg width="65" height="65" viewBox="0 0 65 65" fill="none" xmlns="http://www.w3.org/2000/svg">
<path d="M13.2031 6.09375C9.28345 6.09375 6.09375 9.28345 6.09375 13.2031V51.7969C6.09375 55.7166 9.28345 58.9062 13.2031 58.9062H51.7969C55.7166 58.9062 58.9062 55.7166 58.9062 51.7969V13.2031C58.9062 9.28345 55.7166 6.09375 51.7969 6.09375H13.2031ZM13.2031 8.125H51.7969C54.6017 8.125 56.875 10.3983 56.875 13.2031V51.7969C56.875 54.6017 54.6017 56.875 51.7969 56.875H40.5219V43.6441H46.5244C47.0203 43.6441 47.4448 43.287 47.5281 42.7951L48.6826 35.7333C48.7817 35.1144 48.3057 34.5511 47.6788 34.5511H40.5219V32.9086C40.5219 30.9805 40.9225 30.1196 43.291 30.1196H48.0161C48.5754 30.1196 49.0317 29.6674 49.0317 29.104V21.7487C49.0317 21.225 48.6389 20.7925 48.1192 20.741C46.6077 20.5902 43.6124 20.3125 42.2079 20.3125C35.6699 20.3125 31.4487 24.8114 31.4487 31.774V34.5511H25.3906C24.8312 34.5511 24.375 35.0073 24.375 35.5667V42.6285C24.375 43.1918 24.8312 43.6441 25.3906 43.6441H31.4447V56.875H13.2031C10.3983 56.875 8.125 54.6017 8.125 51.7969V13.2031C8.125 10.3983 10.3983 8.125 13.2031 8.125ZM12.1875 12.1875C11.6241 12.1875 11.1719 12.6437 11.1719 13.2031V15.2344C11.1719 15.7938 11.6241 16.25 12.1875 16.25C12.7509 16.25 13.2031 15.7938 13.2031 15.2344V13.2031C13.2031 12.6437 12.7509 12.1875 12.1875 12.1875ZM17.2656 12.1875C16.7023 12.1875 16.25 12.6437 16.25 13.2031V15.2344C16.25 15.7938 16.7023 16.25 17.2656 16.25C17.829 16.25 18.2812 15.7938 18.2812 15.2344V13.2031C18.2812 12.6437 17.829 12.1875 17.2656 12.1875ZM22.3438 12.1875C21.7804 12.1875 21.3281 12.6437 21.3281 13.2031V15.2344C21.3281 15.7938 21.7804 16.25 22.3438 16.25C22.9071 16.25 23.3594 15.7938 23.3594 15.2344V13.2031C23.3594 12.6437 22.9071 12.1875 22.3438 12.1875ZM27.4219 12.1875C26.8585 12.1875 26.4062 12.6437 26.4062 13.2031V15.2344C26.4062 15.7938 26.8585 16.25 27.4219 16.25C27.9852 16.25 28.4375 15.7938 28.4375 15.2344V13.2031C28.4375 12.6437 27.9852 12.1875 27.4219 12.1875ZM32.5 12.1875C31.9366 12.1875 31.4844 12.6437 31.4844 13.2031V15.2344C31.4844 15.7938 31.9366 16.25 32.5 16.25C33.0634 16.25 33.5156 15.7938 33.5156 15.2344V13.2031C33.5156 12.6437 33.0634 12.1875 32.5 12.1875ZM37.5781 12.1875C37.0148 12.1875 36.5625 12.6437 36.5625 13.2031V15.2344C36.5625 15.7938 37.0148 16.25 37.5781 16.25C38.1415 16.25 38.5938 15.7938 38.5938 15.2344V13.2031C38.5938 12.6437 38.1415 12.1875 37.5781 12.1875ZM42.6562 12.1875C42.0929 12.1875 41.6406 12.6437 41.6406 13.2031V15.2344C41.6406 15.7938 42.0929 16.25 42.6562 16.25C43.2196 16.25 43.6719 15.7938 43.6719 15.2344V13.2031C43.6719 12.6437 43.2196 12.1875 42.6562 12.1875ZM47.7344 12.1875C47.171 12.1875 46.7188 12.6437 46.7188 13.2031V15.2344C46.7188 15.7938 47.171 16.25 47.7344 16.25C48.2977 16.25 48.75 15.7938 48.75 15.2344V13.2031C48.75 12.6437 48.2977 12.1875 47.7344 12.1875ZM52.8125 12.1875C52.2491 12.1875 51.7969 12.6437 51.7969 13.2031V15.2344C51.7969 15.7938 52.2491 16.25 52.8125 16.25C53.3759 16.25 53.8281 15.7938 53.8281 15.2344V13.2031C53.8281 12.6437 53.3759 12.1875 52.8125 12.1875ZM42.2079 22.3438C43.7631 22.3438 45.3699 22.435 47.0004 22.6175V28.0884H43.295C38.9905 28.0884 38.4946 30.8377 38.4946 32.9086V36.5823H46.4847L45.6595 41.6129H38.4906V56.875H33.476V41.6129H26.4062V36.5823H33.4799V31.774C33.4799 25.8707 36.741 22.3438 42.2079 22.3438Z" fill="#7F1300"/>
</svg>
