<svg width="65" height="65" viewBox="0 0 65 65" fill="none" xmlns="http://www.w3.org/2000/svg">
<path d="M13.2031 6.09375C9.28345 6.09375 6.09375 9.28345 6.09375 13.2031V51.7969C6.09375 55.7166 9.28345 58.9062 13.2031 58.9062H51.7969C55.7166 58.9062 58.9062 55.7166 58.9062 51.7969V13.2031C58.9062 9.28345 55.7166 6.09375 51.7969 6.09375H13.2031ZM13.2031 8.125H51.7969C54.5978 8.125 56.875 10.4022 56.875 13.2031V51.7969C56.875 54.5978 54.5978 56.875 51.7969 56.875H13.2031C10.4022 56.875 8.125 54.5978 8.125 51.7969V13.2031C8.125 10.4022 10.4022 8.125 13.2031 8.125ZM48.75 13.2031C47.0718 13.2031 45.7031 14.5718 45.7031 16.25C45.7031 17.9282 47.0718 19.2969 48.75 19.2969C50.4282 19.2969 51.7969 17.9282 51.7969 16.25C51.7969 14.5718 50.4282 13.2031 48.75 13.2031ZM48.75 14.7583C49.5712 14.7583 50.2417 15.4288 50.2417 16.25C50.2417 17.0712 49.5712 17.7417 48.75 17.7417C47.9288 17.7417 47.2583 17.0712 47.2583 16.25C47.2583 15.4288 47.9288 14.7583 48.75 14.7583ZM32.5 18.2812C24.6606 18.2812 18.2812 24.6606 18.2812 32.5C18.2812 40.3394 24.6606 46.7188 32.5 46.7188C40.3394 46.7188 46.7188 40.3394 46.7188 32.5C46.7188 24.6606 40.3394 18.2812 32.5 18.2812ZM32.5 20.3125C39.2206 20.3125 44.6875 25.7794 44.6875 32.5C44.6875 39.2206 39.2206 44.6875 32.5 44.6875C25.7794 44.6875 20.3125 39.2206 20.3125 32.5C20.3125 25.7794 25.7794 20.3125 32.5 20.3125ZM32.5 22.3438C26.8982 22.3438 22.3438 26.8982 22.3438 32.5C22.3438 38.1018 26.8982 42.6562 32.5 42.6562C38.1018 42.6562 42.6562 38.1018 42.6562 32.5C42.6562 26.8982 38.1018 22.3438 32.5 22.3438ZM32.5 24.375C36.9791 24.375 40.625 28.0209 40.625 32.5C40.625 36.9791 36.9791 40.625 32.5 40.625C28.0209 40.625 24.375 36.9791 24.375 32.5C24.375 28.0209 28.0209 24.375 32.5 24.375ZM12.1875 49.7656C11.6281 49.7656 11.1719 50.2219 11.1719 50.7812V52.8125C11.1719 53.3719 11.6281 53.8281 12.1875 53.8281C12.7469 53.8281 13.2031 53.3719 13.2031 52.8125V50.7812C13.2031 50.2219 12.7469 49.7656 12.1875 49.7656ZM17.2656 49.7656C16.7062 49.7656 16.25 50.2219 16.25 50.7812V52.8125C16.25 53.3719 16.7062 53.8281 17.2656 53.8281C17.825 53.8281 18.2812 53.3719 18.2812 52.8125V50.7812C18.2812 50.2219 17.825 49.7656 17.2656 49.7656ZM22.3438 49.7656C21.7844 49.7656 21.3281 50.2219 21.3281 50.7812V52.8125C21.3281 53.3719 21.7844 53.8281 22.3438 53.8281C22.9031 53.8281 23.3594 53.3719 23.3594 52.8125V50.7812C23.3594 50.2219 22.9031 49.7656 22.3438 49.7656ZM27.4219 49.7656C26.8625 49.7656 26.4062 50.2219 26.4062 50.7812V52.8125C26.4062 53.3719 26.8625 53.8281 27.4219 53.8281C27.9813 53.8281 28.4375 53.3719 28.4375 52.8125V50.7812C28.4375 50.2219 27.9813 49.7656 27.4219 49.7656ZM32.5 49.7656C31.9406 49.7656 31.4844 50.2219 31.4844 50.7812V52.8125C31.4844 53.3719 31.9406 53.8281 32.5 53.8281C33.0594 53.8281 33.5156 53.3719 33.5156 52.8125V50.7812C33.5156 50.2219 33.0594 49.7656 32.5 49.7656ZM37.5781 49.7656C37.0187 49.7656 36.5625 50.2219 36.5625 50.7812V52.8125C36.5625 53.3719 37.0187 53.8281 37.5781 53.8281C38.1375 53.8281 38.5938 53.3719 38.5938 52.8125V50.7812C38.5938 50.2219 38.1375 49.7656 37.5781 49.7656ZM42.6562 49.7656C42.0969 49.7656 41.6406 50.2219 41.6406 50.7812V52.8125C41.6406 53.3719 42.0969 53.8281 42.6562 53.8281C43.2156 53.8281 43.6719 53.3719 43.6719 52.8125V50.7812C43.6719 50.2219 43.2156 49.7656 42.6562 49.7656ZM47.7344 49.7656C47.175 49.7656 46.7188 50.2219 46.7188 50.7812V52.8125C46.7188 53.3719 47.175 53.8281 47.7344 53.8281C48.2938 53.8281 48.75 53.3719 48.75 52.8125V50.7812C48.75 50.2219 48.2938 49.7656 47.7344 49.7656ZM52.8125 49.7656C52.2531 49.7656 51.7969 50.2219 51.7969 50.7812V52.8125C51.7969 53.3719 52.2531 53.8281 52.8125 53.8281C53.3719 53.8281 53.8281 53.3719 53.8281 52.8125V50.7812C53.8281 50.2219 53.3719 49.7656 52.8125 49.7656Z" fill="#7F1300"/>
</svg>
