<svg width="45" height="45" viewBox="0 0 45 45" fill="none" xmlns="http://www.w3.org/2000/svg">
<path d="M22.5 31.0312C25.75 28.4062 28.2031 25.8828 29.8594 23.4609C31.5156 21.0391 32.3438 18.7812 32.3438 16.6875C32.3438 14.8437 32.0078 13.2812 31.3359 12C30.6641 10.7187 29.8359 9.67187 28.8516 8.85937C27.8672 8.04687 26.7969 7.46094 25.6406 7.10156C24.4844 6.74219 23.4375 6.5625 22.5 6.5625C21.5625 6.5625 20.5156 6.74219 19.3594 7.10156C18.2031 7.46094 17.1328 8.04687 16.1484 8.85937C15.1641 9.67187 14.3359 10.7187 13.6641 12C12.9922 13.2812 12.6562 14.8437 12.6562 16.6875C12.6562 18.7812 13.4844 21.0391 15.1406 23.4609C16.7969 25.8828 19.25 28.4062 22.5 31.0312ZM22.5 34.5937C18.2188 31.375 15.0391 28.2969 12.9609 25.3594C10.8828 22.4219 9.84375 19.5312 9.84375 16.6875C9.84375 14.5625 10.2266 12.6953 10.9922 11.0859C11.7578 9.47656 12.75 8.125 13.9687 7.03125C15.1875 5.9375 16.5469 5.11719 18.0469 4.57031C19.5469 4.02344 21.0312 3.75 22.5 3.75C23.9688 3.75 25.4531 4.02344 26.9531 4.57031C28.4531 5.11719 29.8125 5.9375 31.0312 7.03125C32.25 8.125 33.2422 9.47656 34.0078 11.0859C34.7734 12.6953 35.1562 14.5625 35.1562 16.6875C35.1562 19.5312 34.1172 22.4219 32.0391 25.3594C29.9609 28.2969 26.7812 31.375 22.5 34.5937ZM22.5 19.6875C23.4062 19.6875 24.1797 19.3672 24.8203 18.7266C25.4609 18.0859 25.7812 17.3125 25.7812 16.4062C25.7812 15.5 25.4609 14.7266 24.8203 14.0859C24.1797 13.4453 23.4062 13.125 22.5 13.125C21.5938 13.125 20.8203 13.4453 20.1797 14.0859C19.5391 14.7266 19.2188 15.5 19.2188 16.4062C19.2188 17.3125 19.5391 18.0859 20.1797 18.7266C20.8203 19.3672 21.5938 19.6875 22.5 19.6875ZM9.84375 41.25V38.4375H35.1562V41.25H9.84375Z" fill="#7F1300"/>
</svg>
