<svg width="45" height="45" viewBox="0 0 45 45" fill="none" xmlns="http://www.w3.org/2000/svg">
<path d="M22.5 39.6094C22.9063 39.6094 23.2422 39.4766 23.5078 39.2109C23.7734 38.9453 23.9063 38.6094 23.9063 38.2031C23.9063 37.7969 23.7734 37.4609 23.5078 37.1953C23.2422 36.9297 22.9063 36.7969 22.5 36.7969C22.0938 36.7969 21.7578 36.9297 21.4922 37.1953C21.2266 37.4609 21.0938 37.7969 21.0938 38.2031C21.0938 38.6094 21.2266 38.9453 21.4922 39.2109C21.7578 39.4766 22.0938 39.6094 22.5 39.6094ZM12.1875 33.2812H32.8125V8.90625H12.1875V33.2812ZM12.1875 43.125C11.4375 43.125 10.7812 42.8438 10.2187 42.2812C9.65625 41.7188 9.375 41.0625 9.375 40.3125V4.6875C9.375 3.9375 9.65625 3.28125 10.2187 2.71875C10.7812 2.15625 11.4375 1.875 12.1875 1.875H32.8125C33.5625 1.875 34.2188 2.15625 34.7812 2.71875C35.3438 3.28125 35.625 3.9375 35.625 4.6875V40.3125C35.625 41.0625 35.3438 41.7188 34.7812 42.2812C34.2188 42.8438 33.5625 43.125 32.8125 43.125H12.1875ZM12.1875 6.09375H32.8125V4.6875H12.1875V6.09375ZM12.1875 4.6875V6.09375V4.6875ZM12.1875 36.0938V40.3125H32.8125V36.0938H12.1875ZM12.1875 40.3125V36.0938V40.3125Z" fill="#7F1300"/>
</svg>
