<svg width="65" height="65" viewBox="0 0 65 65" fill="none" xmlns="http://www.w3.org/2000/svg">
<path d="M13.2031 6.09375C9.28345 6.09375 6.09375 9.28345 6.09375 13.2031V51.7969C6.09375 55.7166 9.28345 58.9062 13.2031 58.9062H51.7969C55.7166 58.9062 58.9062 55.7166 58.9062 51.7969V13.2031C58.9062 9.28345 55.7166 6.09375 51.7969 6.09375H13.2031ZM13.2031 8.125H51.7969C54.5978 8.125 56.875 10.4022 56.875 13.2031V51.7969C56.875 54.5978 54.5978 56.875 51.7969 56.875H13.2031C10.4022 56.875 8.125 54.5978 8.125 51.7969V13.2031C8.125 10.4022 10.4022 8.125 13.2031 8.125ZM12.1875 12.1875C11.6281 12.1875 11.1719 12.6398 11.1719 13.2031V15.2344C11.1719 15.7977 11.6281 16.25 12.1875 16.25C12.7469 16.25 13.2031 15.7977 13.2031 15.2344V13.2031C13.2031 12.6398 12.7469 12.1875 12.1875 12.1875ZM17.2656 12.1875C16.7062 12.1875 16.25 12.6398 16.25 13.2031V15.2344C16.25 15.7977 16.7062 16.25 17.2656 16.25C17.825 16.25 18.2812 15.7977 18.2812 15.2344V13.2031C18.2812 12.6398 17.825 12.1875 17.2656 12.1875ZM22.3438 12.1875C21.7844 12.1875 21.3281 12.6398 21.3281 13.2031V15.2344C21.3281 15.7977 21.7844 16.25 22.3438 16.25C22.9031 16.25 23.3594 15.7977 23.3594 15.2344V13.2031C23.3594 12.6398 22.9031 12.1875 22.3438 12.1875ZM27.4219 12.1875C26.8625 12.1875 26.4062 12.6398 26.4062 13.2031V15.2344C26.4062 15.7977 26.8625 16.25 27.4219 16.25C27.9813 16.25 28.4375 15.7977 28.4375 15.2344V13.2031C28.4375 12.6398 27.9813 12.1875 27.4219 12.1875ZM32.5 12.1875C31.9406 12.1875 31.4844 12.6398 31.4844 13.2031V15.2344C31.4844 15.7977 31.9406 16.25 32.5 16.25C33.0594 16.25 33.5156 15.7977 33.5156 15.2344V13.2031C33.5156 12.6398 33.0594 12.1875 32.5 12.1875ZM37.5781 12.1875C37.0187 12.1875 36.5625 12.6398 36.5625 13.2031V15.2344C36.5625 15.7977 37.0187 16.25 37.5781 16.25C38.1375 16.25 38.5938 15.7977 38.5938 15.2344V13.2031C38.5938 12.6398 38.1375 12.1875 37.5781 12.1875ZM42.6562 12.1875C42.0969 12.1875 41.6406 12.6398 41.6406 13.2031V15.2344C41.6406 15.7977 42.0969 16.25 42.6562 16.25C43.2156 16.25 43.6719 15.7977 43.6719 15.2344V13.2031C43.6719 12.6398 43.2156 12.1875 42.6562 12.1875ZM47.7344 12.1875C47.175 12.1875 46.7188 12.6398 46.7188 13.2031V15.2344C46.7188 15.7977 47.175 16.25 47.7344 16.25C48.2938 16.25 48.75 15.7977 48.75 15.2344V13.2031C48.75 12.6398 48.2938 12.1875 47.7344 12.1875ZM52.8125 12.1875C52.2531 12.1875 51.7969 12.6398 51.7969 13.2031V15.2344C51.7969 15.7977 52.2531 16.25 52.8125 16.25C53.3719 16.25 53.8281 15.7977 53.8281 15.2344V13.2031C53.8281 12.6398 53.3719 12.1875 52.8125 12.1875ZM40.0696 21.1218C35.6976 21.1218 32.139 24.6765 32.139 29.0485C32.139 29.2587 32.1469 29.469 32.1628 29.6753C27.1878 29.1357 22.5818 26.6483 19.3961 22.7365C19.2136 22.5104 18.9279 22.3874 18.6343 22.4072C18.3447 22.431 18.0829 22.5977 17.9361 22.8516C17.2339 24.0576 16.861 25.4343 16.861 26.8347C16.861 28.3264 17.2775 29.7586 18.0313 30.9924C17.7774 30.8853 17.4918 30.9052 17.2498 31.044C16.98 31.1987 16.8094 31.4883 16.8054 31.8018V31.9009C16.8054 34.3805 17.9639 36.6418 19.8047 38.1097C19.6857 38.1613 19.5825 38.2367 19.4952 38.3359C19.2889 38.5699 19.2175 38.8992 19.3127 39.1968C20.1022 41.6565 22.0145 43.5251 24.379 44.3066C22.439 45.3738 20.2649 45.9332 17.9956 45.9332C17.4561 45.9332 16.9284 45.9015 16.4246 45.842C16.008 45.7904 15.6192 46.0324 15.4764 46.4252C15.3375 46.8179 15.4883 47.2504 15.8374 47.4765C19.2056 49.6387 23.1015 50.7812 27.1045 50.7812C34.9716 50.7812 39.895 47.0679 42.6404 43.9536C46.0602 40.0735 48.02 34.9399 48.02 29.8657C48.02 29.707 48.02 29.5483 48.0161 29.3896C49.3173 28.3899 50.444 27.1838 51.3644 25.8032C51.5866 25.4779 51.5628 25.0415 51.3049 24.74C51.051 24.4345 50.6226 24.3353 50.2615 24.498C50.0314 24.5972 49.8013 24.6924 49.5633 24.7836C49.9719 24.1727 50.2972 23.5022 50.5234 22.796C50.6345 22.4429 50.5194 22.0581 50.2298 21.828C49.9402 21.5979 49.5395 21.5701 49.2221 21.7566C48.0597 22.4509 46.806 22.9507 45.4929 23.2602C44.0289 21.8915 42.081 21.1218 40.0696 21.1218ZM40.0696 22.9031C41.7636 22.9031 43.3981 23.6093 44.5566 24.8471C44.7668 25.0693 45.0763 25.1685 45.3818 25.1089C46.1078 24.9661 46.8179 24.7678 47.5122 24.5218C47.1115 24.9622 46.6434 25.343 46.1237 25.6564C45.7626 25.8707 45.6039 26.311 45.7388 26.7078C45.8737 27.1045 46.2704 27.3544 46.687 27.3068C47.1155 27.2513 47.54 27.1838 47.9605 27.0966C47.5281 27.5052 47.0718 27.8821 46.5878 28.2312C46.3458 28.4058 46.207 28.6914 46.2189 28.9929C46.2308 29.2825 46.2427 29.5721 46.2427 29.8657C46.2427 41.843 36.5109 48.9999 27.1045 48.9999C24.6249 48.9999 22.189 48.5199 19.9158 47.5955C22.6056 47.2583 25.1208 46.2109 27.283 44.5129C27.5806 44.2828 27.6996 43.8901 27.5806 43.5291C27.4615 43.172 27.1283 42.93 26.7554 42.9221C24.6011 42.8824 22.6691 41.7279 21.5939 39.9426C22.2644 39.9307 22.9269 39.8395 23.5736 39.6649C23.9743 39.5578 24.2441 39.1888 24.2322 38.7762C24.2163 38.3636 23.9188 38.0106 23.5141 37.9312C21.1179 37.4472 19.2691 35.5865 18.7415 33.23C19.4238 33.4442 20.1379 33.5632 20.8521 33.5831C21.2527 33.6148 21.6098 33.345 21.7288 32.9681C21.8518 32.5912 21.709 32.1786 21.3757 31.9565C19.6658 30.8099 18.6423 28.8977 18.6423 26.8387C18.6423 26.188 18.7454 25.5414 18.9438 24.9304C22.6373 28.8818 27.7432 31.2701 33.1665 31.5439C33.4561 31.5598 33.714 31.4407 33.8965 31.2265C34.075 31.0123 34.1425 30.7266 34.0829 30.4529C33.9758 29.9966 33.9203 29.5245 33.9203 29.0524C33.9203 25.6604 36.6776 22.9031 40.0696 22.9031Z" fill="#7F1300"/>
</svg>
